<svg xmlns="http://www.w3.org/2000/svg" viewBox="0 0 256 256"><defs><style>.a{fill:#016699;}.a,.b,.c,.d{opacity:0.7;}.b{fill:#ef3b39;}.c{fill:#ffcd05;}.d{fill:#659a41;}</style></defs><title>Logo_wordpress</title><path class="a" d="M219.76,68.6L140.35,148l-11.1,11.1c-7.4,7.4-8,21,0,28.28s20.36,7.93,28.28,0L236.95,108,248,96.89c7.4-7.4,8-21,0-28.28s-20.36-7.93-28.28,0h0Z"/><path class="b" d="M7.91,146.84l29.41,29.41,11.1,11.1c7.4,7.4,21,8,28.28,0s7.93-20.36,0-28.28L47.29,129.65l-11.1-11.1c-7.4-7.4-21-8-28.28,0s-7.93,20.36,0,28.28h0Z"/><path class="c" d="M88.42,118.6L59,148l-11.1,11.1c-7.4,7.4-8,21,0,28.28s20.36,7.93,28.28,0L105.6,158l11.1-11.1c7.4-7.4,8-21,0-28.28s-20.36-7.93-28.28,0h0Z"/><path class="d" d="M88.91,146.84l29.41,29.41,11.1,11.1c7.4,7.4,21,8,28.28,0s7.93-20.36,0-28.28l-29.41-29.41-11.1-11.1c-7.4-7.4-21-8-28.28,0s-7.93,20.36,0,28.28h0Z"/><path class="a" d="M219.76,68.6L140.35,148l-11.1,11.1c-7.4,7.4-8,21,0,28.28s20.36,7.93,28.28,0L236.95,108,248,96.89c7.4-7.4,8-21,0-28.28s-20.36-7.93-28.28,0h0Z"/><path class="b" d="M7.91,146.84l29.41,29.41,11.1,11.1c7.4,7.4,21,8,28.28,0s7.93-20.36,0-28.28L47.29,129.65l-11.1-11.1c-7.4-7.4-21-8-28.28,0s-7.93,20.36,0,28.28h0Z"/><path class="c" d="M88.42,118.6L59,148l-11.1,11.1c-7.4,7.4-8,21,0,28.28s20.36,7.93,28.28,0L105.6,158l11.1-11.1c7.4-7.4,8-21,0-28.28s-20.36-7.93-28.28,0h0Z"/><path class="d" d="M88.91,146.84l29.41,29.41,11.1,11.1c7.4,7.4,21,8,28.28,0s7.93-20.36,0-28.28l-29.41-29.41-11.1-11.1c-7.4-7.4-21-8-28.28,0s-7.93,20.36,0,28.28h0Z"/><path class="a" d="M219.76,68.6L140.35,148l-11.1,11.1c-7.4,7.4-8,21,0,28.28s20.36,7.93,28.28,0L236.95,108,248,96.89c7.4-7.4,8-21,0-28.28s-20.36-7.93-28.28,0h0Z"/><path class="b" d="M7.91,146.84l29.41,29.41,11.1,11.1c7.4,7.4,21,8,28.28,0s7.93-20.36,0-28.28L47.29,129.65l-11.1-11.1c-7.4-7.4-21-8-28.28,0s-7.93,20.36,0,28.28h0Z"/><path class="c" d="M88.42,118.6L59,148l-11.1,11.1c-7.4,7.4-8,21,0,28.28s20.36,7.93,28.28,0L105.6,158l11.1-11.1c7.4-7.4,8-21,0-28.28s-20.36-7.93-28.28,0h0Z"/><path class="d" d="M88.91,146.84l29.41,29.41,11.1,11.1c7.4,7.4,21,8,28.28,0s7.93-20.36,0-28.28l-29.41-29.41-11.1-11.1c-7.4-7.4-21-8-28.28,0s-7.93,20.36,0,28.28h0Z"/><path class="a" d="M219.76,68.6L140.35,148l-11.1,11.1c-7.4,7.4-8,21,0,28.28s20.36,7.93,28.28,0L236.95,108,248,96.89c7.4-7.4,8-21,0-28.28s-20.36-7.93-28.28,0h0Z"/><path class="b" d="M7.91,146.84l29.41,29.41,11.1,11.1c7.4,7.4,21,8,28.28,0s7.93-20.36,0-28.28L47.29,129.65l-11.1-11.1c-7.4-7.4-21-8-28.28,0s-7.93,20.36,0,28.28h0Z"/><path class="c" d="M88.42,118.6L59,148l-11.1,11.1c-7.4,7.4-8,21,0,28.28s20.36,7.93,28.28,0L105.6,158l11.1-11.1c7.4-7.4,8-21,0-28.28s-20.36-7.93-28.28,0h0Z"/><path class="d" d="M88.91,146.84l29.41,29.41,11.1,11.1c7.4,7.4,21,8,28.28,0s7.93-20.36,0-28.28l-29.41-29.41-11.1-11.1c-7.4-7.4-21-8-28.28,0s-7.93,20.36,0,28.28h0Z"/><path class="a" d="M219.76,68.6L140.35,148l-11.1,11.1c-7.4,7.4-8,21,0,28.28s20.36,7.93,28.28,0L236.95,108,248,96.89c7.4-7.4,8-21,0-28.28s-20.36-7.93-28.28,0h0Z"/><path class="b" d="M7.91,146.84l29.41,29.41,11.1,11.1c7.4,7.4,21,8,28.28,0s7.93-20.36,0-28.28L47.29,129.65l-11.1-11.1c-7.4-7.4-21-8-28.28,0s-7.93,20.36,0,28.28h0Z"/><path class="c" d="M88.42,118.6L59,148l-11.1,11.1c-7.4,7.4-8,21,0,28.28s20.36,7.93,28.28,0L105.6,158l11.1-11.1c7.4-7.4,8-21,0-28.28s-20.36-7.93-28.28,0h0Z"/><path class="d" d="M88.91,146.84l29.41,29.41,11.1,11.1c7.4,7.4,21,8,28.28,0s7.93-20.36,0-28.28l-29.41-29.41-11.1-11.1c-7.4-7.4-21-8-28.28,0s-7.93,20.36,0,28.28h0Z"/><path class="a" d="M219.76,68.6L140.35,148l-11.1,11.1c-7.4,7.4-8,21,0,28.28s20.36,7.93,28.28,0L236.95,108,248,96.89c7.4-7.4,8-21,0-28.28s-20.36-7.93-28.28,0h0Z"/><path class="b" d="M7.91,146.84l29.41,29.41,11.1,11.1c7.4,7.4,21,8,28.28,0s7.93-20.36,0-28.28L47.29,129.65l-11.1-11.1c-7.4-7.4-21-8-28.28,0s-7.93,20.36,0,28.28h0Z"/><path class="c" d="M88.42,118.6L59,148l-11.1,11.1c-7.4,7.4-8,21,0,28.28s20.36,7.93,28.28,0L105.6,158l11.1-11.1c7.4-7.4,8-21,0-28.28s-20.36-7.93-28.28,0h0Z"/><path class="d" d="M88.91,146.84l29.41,29.41,11.1,11.1c7.4,7.4,21,8,28.28,0s7.93-20.36,0-28.28l-29.41-29.41-11.1-11.1c-7.4-7.4-21-8-28.28,0s-7.93,20.36,0,28.28h0Z"/><path class="a" d="M219.76,68.6L140.35,148l-11.1,11.1c-7.4,7.4-8,21,0,28.28s20.36,7.93,28.28,0L236.95,108,248,96.89c7.4-7.4,8-21,0-28.28s-20.36-7.93-28.28,0h0Z"/><path class="b" d="M7.91,146.84l29.41,29.41,11.1,11.1c7.4,7.4,21,8,28.28,0s7.93-20.36,0-28.28L47.29,129.65l-11.1-11.1c-7.4-7.4-21-8-28.28,0s-7.93,20.36,0,28.28h0Z"/><path class="c" d="M88.42,118.6L59,148l-11.1,11.1c-7.4,7.4-8,21,0,28.28s20.36,7.93,28.28,0L105.6,158l11.1-11.1c7.4-7.4,8-21,0-28.28s-20.36-7.93-28.28,0h0Z"/><path class="d" d="M88.91,146.84l29.41,29.41,11.1,11.1c7.4,7.4,21,8,28.28,0s7.93-20.36,0-28.28l-29.41-29.41-11.1-11.1c-7.4-7.4-21-8-28.28,0s-7.93,20.36,0,28.28h0Z"/></svg>